<?xml version="1.0" standalone="no"?>
<!DOCTYPE svg PUBLIC "-//W3C//DTD SVG 20010904//EN"
 "http://www.w3.org/TR/2001/REC-SVG-20010904/DTD/svg10.dtd">
<svg version="1.0" xmlns="http://www.w3.org/2000/svg"
 width="63.000000pt" height="63.000000pt" viewBox="0 0 63.000000 63.000000"
 preserveAspectRatio="xMidYMid meet">

<g transform="translate(0.000000,63.000000) scale(0.100000,-0.100000)"
fill="#000000" stroke="none">
<path d="M258 610 c-9 -6 -19 -24 -23 -41 -6 -26 -10 -30 -28 -24 -61 19 -78
18 -107 -10 -36 -34 -42 -57 -24 -91 20 -37 18 -41 -20 -54 -38 -12 -46 -25
-46 -76 0 -49 15 -71 51 -79 26 -6 30 -10 24 -28 -19 -61 -18 -78 10 -107 34
-36 57 -42 91 -24 37 20 42 18 49 -16 8 -36 31 -50 80 -50 49 0 72 14 80 50 6
29 28 40 40 20 13 -20 68 -11 97 17 29 27 39 85 18 98 -20 12 -9 34 20 40 36
8 50 31 50 80 0 49 -14 72 -50 80 -29 6 -40 28 -20 40 20 13 11 68 -17 97 -27
29 -85 39 -98 18 -13 -20 -34 -9 -45 24 -6 19 -18 37 -26 40 -24 9 -87 7 -106
-4z m100 -62 c5 -39 54 -57 93 -34 28 17 29 16 54 -9 26 -25 26 -25 8 -55 -16
-28 -16 -33 -3 -57 9 -15 26 -30 40 -33 21 -5 25 -12 25 -45 0 -33 -4 -40 -25
-45 -14 -3 -31 -18 -40 -33 -13 -24 -13 -29 3 -57 18 -30 18 -30 -8 -55 -25
-26 -25 -26 -55 -8 -28 16 -33 16 -57 3 -15 -9 -30 -26 -33 -40 -5 -21 -12
-25 -45 -25 -34 0 -40 4 -43 22 -6 43 -67 68 -92 38 -17 -21 -27 -19 -56 10
-25 25 -25 26 -7 55 16 28 16 33 3 58 -10 17 -26 28 -43 30 -26 3 -28 6 -25
45 3 37 6 42 29 45 41 5 64 67 34 92 -21 17 -19 27 10 56 25 25 26 25 55 7 28
-16 33 -16 58 -3 17 10 28 26 30 43 3 26 6 28 45 25 37 -3 42 -6 45 -30z"/>
<path d="M234 396 c-29 -29 -34 -41 -34 -81 0 -40 5 -52 34 -81 29 -29 41 -34
81 -34 40 0 52 5 81 34 29 29 34 41 34 81 0 40 -5 52 -34 81 -29 29 -41 34
-81 34 -40 0 -52 -5 -81 -34z m141 -26 c47 -47 9 -134 -59 -134 -61 0 -100 58
-74 112 26 53 90 63 133 22z"/>
</g>
</svg>
