<?xml version="1.0" standalone="no"?>
<!DOCTYPE svg PUBLIC "-//W3C//DTD SVG 20010904//EN"
 "http://www.w3.org/TR/2001/REC-SVG-20010904/DTD/svg10.dtd">
<svg version="1.0" xmlns="http://www.w3.org/2000/svg"
 width="64.000000pt" height="63.000000pt" viewBox="0 0 64.000000 63.000000"
 preserveAspectRatio="xMidYMid meet">

<g transform="translate(0.000000,63.000000) scale(0.100000,-0.100000)"
fill="#000000" stroke="none">
<path d="M39 601 c-24 -19 -24 -22 -24 -210 0 -259 -30 -236 305 -236 335 0
305 -23 305 236 0 188 0 191 -24 210 -21 18 -42 19 -281 19 -239 0 -260 -1
-281 -19z m539 -205 c2 -116 -1 -173 -9 -182 -16 -19 -478 -21 -497 -2 -13 13
-18 339 -5 352 4 3 119 5 257 4 l251 -3 3 -169z"/>
<path d="M220 390 c0 -84 3 -120 12 -120 10 0 141 72 191 105 15 11 4 20 -89
74 -58 33 -108 61 -110 61 -2 0 -4 -54 -4 -120z m90 15 c17 -9 30 -18 30 -20
0 -5 -56 -35 -65 -35 -3 0 -5 16 -5 35 0 40 1 40 40 20z"/>
<path d="M153 94 c-11 -8 -44 -13 -81 -14 -60 0 -63 -1 -60 -22 3 -21 9 -23
63 -26 33 -2 64 -7 70 -13 12 -12 48 -12 61 1 5 5 98 11 214 12 204 3 205 3
208 26 l3 22 -205 0 c-113 0 -207 4 -210 9 -10 16 -45 19 -63 5z"/>
</g>
</svg>
