<?xml version="1.0" standalone="no"?>
<!DOCTYPE svg PUBLIC "-//W3C//DTD SVG 20010904//EN"
 "http://www.w3.org/TR/2001/REC-SVG-20010904/DTD/svg10.dtd">
<svg version="1.0" xmlns="http://www.w3.org/2000/svg"
 width="64.000000pt" height="61.000000pt" viewBox="0 0 64.000000 61.000000"
 preserveAspectRatio="xMidYMid meet">

<g transform="translate(0.000000,61.000000) scale(0.100000,-0.100000)"
fill="#000000" stroke="none">
<path d="M286 584 c-9 -8 -26 -49 -38 -90 l-23 -74 -80 0 c-95 0 -125 -15
-125 -60 0 -25 11 -38 71 -81 38 -28 68 -57 66 -63 -26 -69 -49 -157 -44 -170
4 -9 18 -21 32 -28 23 -10 33 -7 101 41 l75 52 74 -52 c68 -48 77 -51 100 -41
14 7 28 19 32 28 5 13 -18 101 -44 170 -2 6 28 35 66 63 60 43 71 56 71 80 0
43 -23 55 -118 61 l-84 5 -28 79 c-16 43 -34 82 -41 87 -21 13 -46 11 -63 -7z
m77 -117 l28 -86 96 -3 c58 -2 98 -7 100 -14 2 -6 -30 -35 -72 -64 -41 -30
-75 -57 -75 -60 0 -3 11 -41 25 -85 39 -126 35 -129 -65 -55 -37 28 -73 50
-79 50 -6 0 -42 -22 -80 -50 -101 -74 -107 -70 -66 50 14 40 25 78 25 85 0 6
-34 35 -75 65 -42 29 -74 58 -72 64 2 7 42 12 100 14 l96 3 27 82 c15 45 29
86 31 90 12 20 29 -6 56 -86z"/>
</g>
</svg>
