<?xml version="1.0" standalone="no"?>
<!DOCTYPE svg PUBLIC "-//W3C//DTD SVG 20010904//EN"
 "http://www.w3.org/TR/2001/REC-SVG-20010904/DTD/svg10.dtd">
<svg version="1.0" xmlns="http://www.w3.org/2000/svg"
 width="69.000000pt" height="69.000000pt" viewBox="0 0 69.000000 69.000000"
 preserveAspectRatio="xMidYMid meet">

<g transform="translate(0.000000,69.000000) scale(0.100000,-0.100000)"
fill="#000000" stroke="none">
<path d="M173 603 l-163 -76 0 -193 0 -192 168 -67 167 -67 168 67 167 67 0
192 0 193 -165 76 c-91 43 -169 77 -173 76 -4 0 -80 -34 -169 -76z m306 -30
l124 -58 -39 -17 c-22 -10 -46 -18 -56 -18 -14 0 -246 95 -256 105 -6 5 70 44
88 45 8 0 71 -26 139 -57z m-163 -64 c65 -28 121 -53 123 -55 2 -2 -18 -13
-44 -24 l-48 -21 -130 52 -130 52 44 23 c24 13 49 23 55 24 5 0 64 -23 130
-51z m-122 -84 l126 -50 0 -152 c0 -84 -3 -153 -7 -153 -5 0 -65 23 -135 51
l-128 51 0 155 c0 85 4 153 9 151 4 -1 65 -25 135 -53z m446 -99 l0 -154 -127
-51 c-71 -28 -131 -51 -135 -51 -5 0 -8 69 -8 153 l0 152 128 52 c70 28 130
52 135 52 4 1 7 -68 7 -153z"/>
</g>
</svg>
