<?xml version="1.0" standalone="no"?>
<!DOCTYPE svg PUBLIC "-//W3C//DTD SVG 20010904//EN"
 "http://www.w3.org/TR/2001/REC-SVG-20010904/DTD/svg10.dtd">
<svg version="1.0" xmlns="http://www.w3.org/2000/svg"
 width="55.000000pt" height="69.000000pt" viewBox="0 0 55.000000 69.000000"
 preserveAspectRatio="xMidYMid meet">

<g transform="translate(0.000000,69.000000) scale(0.100000,-0.100000)"
fill="#000000" stroke="none">
<path d="M211 669 c-73 -29 -113 -89 -113 -169 1 -94 63 -160 158 -168 67 -6
103 9 148 59 55 60 60 141 13 210 -44 65 -137 96 -206 68z m114 -55 c125 -59
73 -245 -65 -231 -35 4 -51 12 -78 42 -31 34 -34 41 -30 86 6 54 27 84 73 105
40 18 60 17 100 -2z"/>
<path d="M155 251 c-79 -36 -142 -133 -133 -206 2 -22 8 -30 23 -30 15 0 21 9
27 44 17 102 91 161 203 161 112 0 186 -59 203 -161 6 -35 12 -44 27 -44 47 0
26 112 -33 177 -53 59 -101 78 -197 78 -56 0 -92 -6 -120 -19z"/>
</g>
</svg>
