<?xml version="1.0" standalone="no"?>
<!DOCTYPE svg PUBLIC "-//W3C//DTD SVG 20010904//EN"
 "http://www.w3.org/TR/2001/REC-SVG-20010904/DTD/svg10.dtd">
<svg version="1.0" xmlns="http://www.w3.org/2000/svg"
 width="60.000000pt" height="63.000000pt" viewBox="0 0 60.000000 63.000000"
 preserveAspectRatio="xMidYMid meet">

<g transform="translate(0.000000,63.000000) scale(0.100000,-0.100000)"
fill="#000000" stroke="none">
<path d="M425 610 c-42 -17 -70 -59 -70 -104 0 -43 -1 -44 -66 -79 l-65 -36
-30 19 c-50 34 -123 19 -158 -32 -20 -29 -20 -97 0 -126 35 -51 108 -66 158
-32 l30 19 65 -36 c65 -35 66 -36 66 -79 0 -34 6 -49 29 -73 75 -78 196 -31
196 75 0 89 -95 142 -173 96 l-34 -20 -63 37 c-61 35 -63 38 -63 76 0 38 2 41
63 76 l63 37 34 -20 c77 -46 173 7 173 95 0 49 -19 81 -60 102 -32 16 -64 18
-95 5z m90 -55 c62 -61 -10 -155 -86 -114 -47 24 -44 104 4 127 35 17 56 14
82 -13z m-346 -175 c10 -5 24 -22 30 -39 21 -49 -15 -101 -70 -101 -28 0 -69
44 -69 75 0 14 11 37 25 50 25 26 54 31 84 15z m345 -201 c34 -27 35 -71 1
-104 -27 -28 -42 -30 -79 -14 -33 15 -50 57 -37 91 19 50 71 62 115 27z"/>
</g>
</svg>
