<?xml version="1.0" standalone="no"?>
<!DOCTYPE svg PUBLIC "-//W3C//DTD SVG 20010904//EN"
 "http://www.w3.org/TR/2001/REC-SVG-20010904/DTD/svg10.dtd">
<svg version="1.0" xmlns="http://www.w3.org/2000/svg"
 width="61.000000pt" height="69.000000pt" viewBox="0 0 61.000000 69.000000"
 preserveAspectRatio="xMidYMid meet">

<g transform="translate(0.000000,69.000000) scale(0.100000,-0.100000)"
fill="#000000" stroke="none">
<path d="M224 661 c-52 -24 -94 -78 -101 -130 -3 -22 -14 -48 -24 -57 -21 -19
-25 -74 -7 -92 7 -7 22 -12 35 -12 17 0 27 -11 42 -44 11 -25 29 -51 40 -58
29 -18 26 -28 -6 -28 -115 0 -201 -86 -191 -190 l3 -35 290 0 290 0 3 35 c10
104 -76 190 -190 190 -16 0 -28 3 -28 6 0 15 48 43 75 44 17 0 41 7 53 16 19
13 22 24 22 83 0 54 -4 71 -19 85 -10 9 -21 35 -24 57 -11 80 -94 149 -182
149 -22 0 -59 -9 -81 -19z m146 -39 c42 -21 80 -75 80 -114 l0 -30 -40 32
c-39 31 -42 32 -60 15 -28 -25 -88 -44 -142 -45 -46 0 -48 1 -48 29 0 62 77
131 145 131 17 0 46 -8 65 -18z m27 -154 c25 -23 30 -68 13 -112 -8 -21 -16
-25 -57 -28 -35 -2 -49 -7 -51 -20 -2 -11 5 -18 20 -20 22 -3 22 -4 2 -9 -31
-9 -85 12 -107 42 -10 15 -21 47 -24 71 l-5 45 59 7 c32 3 72 15 88 26 38 24
35 24 62 -2z m-247 -43 c0 -8 -7 -15 -15 -15 -8 0 -15 7 -15 15 0 8 7 15 15
15 8 0 15 -7 15 -15z m340 0 c0 -8 -7 -15 -15 -15 -8 0 -15 7 -15 15 0 8 7 15
15 15 8 0 15 -7 15 -15z m0 -70 c0 -16 -27 -32 -37 -22 -3 4 -3 13 0 22 8 20
37 20 37 0z m-150 -135 c0 -10 -7 -23 -16 -31 -20 -16 -48 -1 -52 29 -3 17 2
20 32 20 28 0 36 -4 36 -18z m-98 -39 c8 -11 25 -25 40 -31 29 -14 63 -1 87
33 12 16 21 18 63 13 28 -4 61 -14 75 -23 29 -19 53 -63 53 -98 l0 -25 -255 0
-255 0 0 25 c0 54 45 107 101 118 54 10 78 7 91 -12z"/>
</g>
</svg>
