<?xml version="1.0" standalone="no"?>
<!DOCTYPE svg PUBLIC "-//W3C//DTD SVG 20010904//EN"
 "http://www.w3.org/TR/2001/REC-SVG-20010904/DTD/svg10.dtd">
<svg version="1.0" xmlns="http://www.w3.org/2000/svg"
 width="64.000000pt" height="51.000000pt" viewBox="0 0 64.000000 51.000000"
 preserveAspectRatio="xMidYMid meet">

<g transform="translate(0.000000,51.000000) scale(0.100000,-0.100000)"
fill="#000000" stroke="none">
<path d="M106 490 c-77 -24 -96 -72 -96 -237 0 -142 11 -179 63 -217 27 -20
42 -21 247 -21 205 0 220 1 247 21 52 38 63 75 63 219 0 144 -11 181 -63 219
-26 19 -44 21 -230 23 -111 1 -215 -2 -231 -7z m433 -44 c42 -22 51 -54 51
-191 0 -204 -1 -205 -270 -205 -269 0 -270 1 -270 208 1 201 1 201 268 202
148 0 199 -3 221 -14z"/>
<path d="M110 326 c0 -8 36 -42 81 -75 72 -55 85 -61 128 -61 52 0 96 24 181
99 38 33 42 40 28 46 -13 5 -39 -9 -90 -48 -40 -30 -84 -57 -97 -60 -33 -8
-74 11 -145 67 -61 47 -86 57 -86 32z"/>
</g>
</svg>
